<svg xmlns="http://www.w3.org/2000/svg" width="1160" height="380" viewBox="0 0 1160 380" role="img" aria-labelledby="title desc">
  <title id="title">chatgpt-native-bridge desktop and MCP workflow</title>
  <desc id="desc">Codex installs MCP config, ChatGPT reads local context through MCP tools, then submits a reply for Codex.</desc>
  <defs>
    <style>
      .bg { fill: #f8fafc; }
      .box { fill: #ffffff; stroke: #334155; stroke-width: 2; rx: 12; }
      .accent { fill: #ecfeff; stroke: #0891b2; stroke-width: 2; rx: 12; }
      .soft { fill: #f1f5f9; stroke: #94a3b8; stroke-width: 2; rx: 12; }
      .text { fill: #0f172a; font-family: Arial, sans-serif; font-size: 18px; font-weight: 700; }
      .sub { fill: #475569; font-family: Arial, sans-serif; font-size: 13px; }
      .code { fill: #0f172a; font-family: Consolas, "Courier New", monospace; font-size: 13px; }
      .arrow { stroke: #2563eb; stroke-width: 3; marker-end: url(#arrow); }
      .fallback { stroke: #94a3b8; stroke-width: 3; stroke-dasharray: 8 8; marker-end: url(#arrow-soft); }
    </style>
    <marker id="arrow" markerWidth="12" markerHeight="12" refX="10" refY="6" orient="auto">
      <path d="M2,2 L10,6 L2,10 Z" fill="#2563eb" />
    </marker>
    <marker id="arrow-soft" markerWidth="12" markerHeight="12" refX="10" refY="6" orient="auto">
      <path d="M2,2 L10,6 L2,10 Z" fill="#94a3b8" />
    </marker>
  </defs>

  <rect class="bg" width="1160" height="380" />

  <rect class="box" x="36" y="96" width="150" height="110" />
  <text class="text" x="82" y="135">Codex</text>
  <text class="sub" x="65" y="162">local project</text>
  <text class="sub" x="66" y="183">repo + tests</text>

  <line class="arrow" x1="186" y1="151" x2="250" y2="151" />
  <rect class="accent" x="250" y="86" width="210" height="130" />
  <text class="text" x="294" y="126">setup --mcp</text>
  <text class="code" x="278" y="155">npx github:rp10000/...</text>
  <text class="sub" x="292" y="182">writes Codex MCP config</text>

  <line class="arrow" x1="460" y1="151" x2="525" y2="151" />
  <rect class="box" x="525" y="70" width="220" height="165" />
  <text class="text" x="575" y="111">MCP tools</text>
  <text class="sub" x="560" y="142">bridge_status</text>
  <text class="sub" x="560" y="164">read_repo_file</text>
  <text class="sub" x="560" y="186">read_git_diff</text>
  <text class="sub" x="560" y="208">create_handoff</text>

  <line class="arrow" x1="745" y1="151" x2="810" y2="151" />
  <rect class="box" x="810" y="70" width="240" height="165" />
  <text class="text" x="858" y="111">ChatGPT</text>
  <text class="sub" x="845" y="142">planning + critique</text>
  <text class="sub" x="845" y="164">research</text>
  <text class="sub" x="845" y="186">file/image analysis</text>
  <text class="sub" x="845" y="208">visible user control</text>

  <line class="arrow" x1="930" y1="235" x2="930" y2="280" />
  <rect class="accent" x="790" y="280" width="280" height="52" />
  <text class="text" x="820" y="313">submit_reply_to_codex</text>
  <line class="arrow" x1="790" y1="306" x2="186" y2="206" />
  <text class="sub" x="360" y="302">Codex reads inbox/reply.md and continues locally</text>

  <rect class="soft" x="120" y="328" width="920" height="38" />
  <text class="sub" x="310" y="352">Fallback: cgn handoff -> visible ChatGPT -> cgn done</text>
</svg>
