<svg xmlns="http://www.w3.org/2000/svg" width="1100" height="360" viewBox="0 0 1100 360" role="img" aria-labelledby="title desc">
  <title id="title">chatgpt-native-bridge workflow</title>
  <desc id="desc">Codex creates a handoff, ChatGPT uses native tools, Codex imports the reply and continues locally.</desc>
  <defs>
    <style>
      .bg { fill: #f8fafc; }
      .box { fill: #ffffff; stroke: #334155; stroke-width: 2; rx: 12; }
      .accent { fill: #ecfeff; stroke: #0891b2; }
      .text { fill: #0f172a; font-family: Arial, sans-serif; font-size: 18px; font-weight: 700; }
      .sub { fill: #475569; font-family: Arial, sans-serif; font-size: 13px; }
      .arrow { stroke: #64748b; stroke-width: 3; marker-end: url(#arrow); }
    </style>
    <marker id="arrow" markerWidth="12" markerHeight="12" refX="10" refY="6" orient="auto">
      <path d="M2,2 L10,6 L2,10 Z" fill="#64748b" />
    </marker>
  </defs>
  <rect class="bg" x="0" y="0" width="1100" height="360" />
  <rect class="box" x="40" y="115" width="150" height="100" />
  <text class="text" x="75" y="155">Codex</text>
  <text class="sub" x="62" y="180">local task</text>
  <text class="sub" x="58" y="198">repo + tests</text>
  <line class="arrow" x1="190" y1="165" x2="250" y2="165" />
  <rect class="accent" x="250" y="115" width="140" height="100" rx="12" />
  <text class="text" x="287" y="155">MCP or handoff</text>
  <text class="sub" x="278" y="180">pack context</text>
  <line class="arrow" x1="390" y1="165" x2="450" y2="165" />
  <rect class="box" x="450" y="80" width="185" height="170" />
  <text class="text" x="485" y="125">outbox</text>
  <text class="sub" x="470" y="152">01_PASTE</text>
  <text class="sub" x="480" y="174">context.md</text>
  <text class="sub" x="480" y="196">diff.patch</text>
  <text class="sub" x="480" y="218">screenshots/</text>
  <line class="arrow" x1="635" y1="165" x2="695" y2="165" />
  <rect class="box" x="695" y="65" width="215" height="200" />
  <text class="text" x="740" y="115">ChatGPT web</text>
  <text class="sub" x="730" y="145">planning + critique</text>
  <text class="sub" x="730" y="168">research</text>
  <text class="sub" x="730" y="191">file/image analysis</text>
  <text class="sub" x="730" y="214">visual direction</text>
  <text class="sub" x="730" y="237">visible user control</text>
  <line class="arrow" x1="805" y1="265" x2="805" y2="305" />
  <rect class="accent" x="705" y="305" width="200" height="44" rx="10" />
  <text class="text" x="742" y="333">cgn import</text>
  <line class="arrow" x1="705" y1="327" x2="635" y2="327" />
  <rect class="box" x="450" y="292" width="185" height="52" />
  <text class="text" x="495" y="325">inbox reply</text>
  <line class="arrow" x1="450" y1="327" x2="190" y2="215" />
  <text class="sub" x="235" y="293">Codex reads reply.md and continues locally</text>
</svg>
